<mxfile host="app.diagrams.net" modified="2023-05-27T09:24:52.332Z" agent="Mozilla/5.0 (Windows NT 10.0; Win64; x64) AppleWebKit/537.36 (KHTML, like Gecko) Chrome/113.0.0.0 Safari/537.36" etag="lNwZnkqgXJP_U28aoxGP" version="21.3.4" type="device">
  <diagram name="第 1 页" id="-Ucx1x8asGiWPKPR_r6c">
    <mxGraphModel dx="1750" dy="915" grid="1" gridSize="10" guides="1" tooltips="1" connect="1" arrows="1" fold="1" page="1" pageScale="1" pageWidth="827" pageHeight="1169" math="0" shadow="0">
      <root>
        <mxCell id="0" />
        <mxCell id="1" parent="0" />
        <mxCell id="zl6qF2EFwhdNq1f8Qjjg-1" value="int&amp;nbsp; A[][] = new int [n+1][B+1];&lt;br&gt;//開一個陣列，放計算最大價值的結果" style="rounded=0;whiteSpace=wrap;html=1;spacingLeft=0;fontFamily=Verdana;" vertex="1" parent="1">
          <mxGeometry x="165" y="160" width="230" height="60" as="geometry" />
        </mxCell>
        <mxCell id="zl6qF2EFwhdNq1f8Qjjg-58" style="edgeStyle=orthogonalEdgeStyle;rounded=0;orthogonalLoop=1;jettySize=auto;html=1;entryX=0.5;entryY=0;entryDx=0;entryDy=0;" edge="1" parent="1" source="zl6qF2EFwhdNq1f8Qjjg-2" target="zl6qF2EFwhdNq1f8Qjjg-1">
          <mxGeometry relative="1" as="geometry" />
        </mxCell>
        <mxCell id="zl6qF2EFwhdNq1f8Qjjg-2" value="Sart" style="ellipse;whiteSpace=wrap;html=1;" vertex="1" parent="1">
          <mxGeometry x="230" y="70" width="100" height="60" as="geometry" />
        </mxCell>
        <mxCell id="zl6qF2EFwhdNq1f8Qjjg-4" value="副程式 - max 方法" style="text;strokeColor=none;fillColor=none;html=1;fontSize=18;fontStyle=1;verticalAlign=middle;align=center;fontFamily=Helvetica;labelBorderColor=none;labelBackgroundColor=none;" vertex="1" parent="1">
          <mxGeometry x="180" y="10" width="200" height="40" as="geometry" />
        </mxCell>
        <mxCell id="zl6qF2EFwhdNq1f8Qjjg-6" value="for ( int i = 1 ; i &amp;lt;= n , i++)" style="rhombus;whiteSpace=wrap;html=1;" vertex="1" parent="1">
          <mxGeometry x="180" y="270" width="200" height="80" as="geometry" />
        </mxCell>
        <mxCell id="zl6qF2EFwhdNq1f8Qjjg-7" value="for ( int j = 1 ; j &amp;lt;= B , j++)" style="rhombus;whiteSpace=wrap;html=1;" vertex="1" parent="1">
          <mxGeometry x="180" y="390" width="200" height="80" as="geometry" />
        </mxCell>
        <mxCell id="zl6qF2EFwhdNq1f8Qjjg-8" value="" style="endArrow=classic;html=1;rounded=0;entryX=0.5;entryY=0;entryDx=0;entryDy=0;" edge="1" parent="1" source="zl6qF2EFwhdNq1f8Qjjg-1" target="zl6qF2EFwhdNq1f8Qjjg-6">
          <mxGeometry width="50" height="50" relative="1" as="geometry">
            <mxPoint x="80" y="260" as="sourcePoint" />
            <mxPoint x="130" y="210" as="targetPoint" />
          </mxGeometry>
        </mxCell>
        <mxCell id="zl6qF2EFwhdNq1f8Qjjg-9" value="" style="endArrow=classic;html=1;rounded=0;" edge="1" parent="1" source="zl6qF2EFwhdNq1f8Qjjg-6">
          <mxGeometry width="50" height="50" relative="1" as="geometry">
            <mxPoint x="110" y="390" as="sourcePoint" />
            <mxPoint x="280" y="390" as="targetPoint" />
          </mxGeometry>
        </mxCell>
        <mxCell id="zl6qF2EFwhdNq1f8Qjjg-11" value="i &amp;lt;= n" style="text;html=1;align=center;verticalAlign=middle;resizable=0;points=[];autosize=1;strokeColor=none;fillColor=none;fontStyle=1;fontFamily=Comic Sans MS;" vertex="1" parent="1">
          <mxGeometry x="285" y="350" width="60" height="30" as="geometry" />
        </mxCell>
        <mxCell id="zl6qF2EFwhdNq1f8Qjjg-12" value="i &amp;lt;= B" style="text;html=1;align=center;verticalAlign=middle;resizable=0;points=[];autosize=1;strokeColor=none;fillColor=none;fontStyle=1;fontFamily=Comic Sans MS;" vertex="1" parent="1">
          <mxGeometry x="285" y="480" width="60" height="30" as="geometry" />
        </mxCell>
        <mxCell id="zl6qF2EFwhdNq1f8Qjjg-14" value="if ( f [i-1]&amp;nbsp; &amp;lt;= j )" style="rhombus;whiteSpace=wrap;html=1;fontFamily=Verdana;" vertex="1" parent="1">
          <mxGeometry x="210" y="510" width="140" height="80" as="geometry" />
        </mxCell>
        <mxCell id="zl6qF2EFwhdNq1f8Qjjg-15" value="A[i][j] = Math.max(A[i - 1][j], v[i - 1] + A[i - 1][j - f[i - 1]]);" style="rounded=0;whiteSpace=wrap;html=1;fontFamily=Verdana;spacing=2;" vertex="1" parent="1">
          <mxGeometry x="75" y="620" width="410" height="60" as="geometry" />
        </mxCell>
        <mxCell id="zl6qF2EFwhdNq1f8Qjjg-17" value="A[i][j] = A[i - 1][j];" style="rounded=0;whiteSpace=wrap;html=1;fontFamily=Verdana;" vertex="1" parent="1">
          <mxGeometry x="195" y="720" width="170" height="60" as="geometry" />
        </mxCell>
        <mxCell id="zl6qF2EFwhdNq1f8Qjjg-18" value="" style="endArrow=classic;html=1;rounded=0;" edge="1" parent="1" source="zl6qF2EFwhdNq1f8Qjjg-14" target="zl6qF2EFwhdNq1f8Qjjg-15">
          <mxGeometry width="50" height="50" relative="1" as="geometry">
            <mxPoint x="430" y="570" as="sourcePoint" />
            <mxPoint x="480" y="520" as="targetPoint" />
          </mxGeometry>
        </mxCell>
        <mxCell id="zl6qF2EFwhdNq1f8Qjjg-19" value="" style="endArrow=classic;html=1;rounded=0;exitX=0.5;exitY=1;exitDx=0;exitDy=0;" edge="1" parent="1" source="zl6qF2EFwhdNq1f8Qjjg-7" target="zl6qF2EFwhdNq1f8Qjjg-14">
          <mxGeometry width="50" height="50" relative="1" as="geometry">
            <mxPoint x="470" y="540" as="sourcePoint" />
            <mxPoint x="520" y="490" as="targetPoint" />
          </mxGeometry>
        </mxCell>
        <mxCell id="zl6qF2EFwhdNq1f8Qjjg-20" value="" style="endArrow=classic;html=1;rounded=0;exitX=1;exitY=0.5;exitDx=0;exitDy=0;entryX=1;entryY=0.5;entryDx=0;entryDy=0;" edge="1" parent="1" source="zl6qF2EFwhdNq1f8Qjjg-14" target="zl6qF2EFwhdNq1f8Qjjg-17">
          <mxGeometry width="50" height="50" relative="1" as="geometry">
            <mxPoint x="440" y="570" as="sourcePoint" />
            <mxPoint x="490" y="520" as="targetPoint" />
            <Array as="points">
              <mxPoint x="520" y="550" />
              <mxPoint x="520" y="650" />
              <mxPoint x="520" y="750" />
            </Array>
          </mxGeometry>
        </mxCell>
        <mxCell id="zl6qF2EFwhdNq1f8Qjjg-21" value="true" style="text;html=1;align=center;verticalAlign=middle;resizable=0;points=[];autosize=1;strokeColor=none;fillColor=none;fontStyle=1;fontFamily=Comic Sans MS;" vertex="1" parent="1">
          <mxGeometry x="285" y="585" width="50" height="30" as="geometry" />
        </mxCell>
        <mxCell id="zl6qF2EFwhdNq1f8Qjjg-22" value="false" style="text;html=1;align=center;verticalAlign=middle;resizable=0;points=[];autosize=1;strokeColor=none;fillColor=none;fontStyle=1;fontFamily=Comic Sans MS;" vertex="1" parent="1">
          <mxGeometry x="370" y="520" width="50" height="30" as="geometry" />
        </mxCell>
        <mxCell id="zl6qF2EFwhdNq1f8Qjjg-23" value="" style="endArrow=classic;html=1;rounded=0;exitX=0.5;exitY=1;exitDx=0;exitDy=0;entryX=0;entryY=1;entryDx=0;entryDy=0;" edge="1" parent="1" source="zl6qF2EFwhdNq1f8Qjjg-17" target="zl6qF2EFwhdNq1f8Qjjg-7">
          <mxGeometry width="50" height="50" relative="1" as="geometry">
            <mxPoint x="290" y="880" as="sourcePoint" />
            <mxPoint x="340" y="830" as="targetPoint" />
            <Array as="points">
              <mxPoint x="280" y="800" />
              <mxPoint x="40" y="800" />
              <mxPoint x="40" y="450" />
              <mxPoint x="130" y="450" />
            </Array>
          </mxGeometry>
        </mxCell>
        <mxCell id="zl6qF2EFwhdNq1f8Qjjg-24" value="" style="endArrow=classic;html=1;rounded=0;exitX=0.146;exitY=0.357;exitDx=0;exitDy=0;exitPerimeter=0;entryX=0;entryY=1;entryDx=0;entryDy=0;" edge="1" parent="1" source="zl6qF2EFwhdNq1f8Qjjg-7" target="zl6qF2EFwhdNq1f8Qjjg-6">
          <mxGeometry width="50" height="50" relative="1" as="geometry">
            <mxPoint x="190" y="420" as="sourcePoint" />
            <mxPoint x="180" y="370" as="targetPoint" />
            <Array as="points">
              <mxPoint x="120" y="420" />
              <mxPoint x="120" y="330" />
              <mxPoint x="160" y="330" />
            </Array>
          </mxGeometry>
        </mxCell>
        <mxCell id="zl6qF2EFwhdNq1f8Qjjg-25" value="i &amp;gt; B" style="text;html=1;align=center;verticalAlign=middle;resizable=0;points=[];autosize=1;strokeColor=none;fillColor=none;fontStyle=1;fontFamily=Comic Sans MS;" vertex="1" parent="1">
          <mxGeometry x="125" y="390" width="50" height="30" as="geometry" />
        </mxCell>
        <mxCell id="zl6qF2EFwhdNq1f8Qjjg-27" value="" style="endArrow=classic;html=1;rounded=0;exitX=0.094;exitY=0.398;exitDx=0;exitDy=0;exitPerimeter=0;entryX=0;entryY=0.5;entryDx=0;entryDy=0;" edge="1" parent="1" source="zl6qF2EFwhdNq1f8Qjjg-6" target="zl6qF2EFwhdNq1f8Qjjg-29">
          <mxGeometry width="50" height="50" relative="1" as="geometry">
            <mxPoint x="160" y="290" as="sourcePoint" />
            <mxPoint x="170" y="860" as="targetPoint" />
            <Array as="points">
              <mxPoint x="10" y="302" />
              <mxPoint x="10" y="860" />
            </Array>
          </mxGeometry>
        </mxCell>
        <mxCell id="zl6qF2EFwhdNq1f8Qjjg-28" value="i &amp;gt; n" style="text;html=1;align=center;verticalAlign=middle;resizable=0;points=[];autosize=1;strokeColor=none;fillColor=none;fontStyle=1;fontFamily=Comic Sans MS;" vertex="1" parent="1">
          <mxGeometry x="60" y="270" width="50" height="30" as="geometry" />
        </mxCell>
        <mxCell id="zl6qF2EFwhdNq1f8Qjjg-29" value="List&amp;lt;Integer&amp;gt; Sites = new ArrayList&amp;lt;&amp;gt;();&lt;br&gt;        int j = B;" style="rounded=0;whiteSpace=wrap;html=1;fontFamily=Verdana;align=left;spacingBottom=0;" vertex="1" parent="1">
          <mxGeometry x="148.75" y="830" width="262.5" height="60" as="geometry" />
        </mxCell>
        <mxCell id="zl6qF2EFwhdNq1f8Qjjg-52" style="edgeStyle=orthogonalEdgeStyle;rounded=0;orthogonalLoop=1;jettySize=auto;html=1;entryX=0;entryY=0.5;entryDx=0;entryDy=0;" edge="1" parent="1" source="zl6qF2EFwhdNq1f8Qjjg-30" target="zl6qF2EFwhdNq1f8Qjjg-38">
          <mxGeometry relative="1" as="geometry">
            <mxPoint x="110" y="1320" as="targetPoint" />
            <Array as="points">
              <mxPoint x="111" y="970" />
              <mxPoint x="111" y="1310" />
            </Array>
          </mxGeometry>
        </mxCell>
        <mxCell id="zl6qF2EFwhdNq1f8Qjjg-30" value=" for (int i = n; i &amp;gt; 0; i--)" style="rhombus;whiteSpace=wrap;html=1;fontFamily=Verdana;" vertex="1" parent="1">
          <mxGeometry x="187.5" y="930" width="185" height="80" as="geometry" />
        </mxCell>
        <mxCell id="zl6qF2EFwhdNq1f8Qjjg-48" style="edgeStyle=orthogonalEdgeStyle;rounded=0;orthogonalLoop=1;jettySize=auto;html=1;entryX=1;entryY=0.5;entryDx=0;entryDy=0;" edge="1" parent="1" source="zl6qF2EFwhdNq1f8Qjjg-31" target="zl6qF2EFwhdNq1f8Qjjg-30">
          <mxGeometry relative="1" as="geometry">
            <mxPoint x="410" y="970" as="targetPoint" />
            <Array as="points">
              <mxPoint x="441" y="1100" />
              <mxPoint x="441" y="970" />
            </Array>
          </mxGeometry>
        </mxCell>
        <mxCell id="zl6qF2EFwhdNq1f8Qjjg-31" value="if (A[i][j] != A[i - 1][j])" style="rhombus;whiteSpace=wrap;html=1;fontFamily=Verdana;" vertex="1" parent="1">
          <mxGeometry x="190" y="1060" width="180" height="80" as="geometry" />
        </mxCell>
        <mxCell id="zl6qF2EFwhdNq1f8Qjjg-32" value="Sites.add(i);&lt;br&gt;                j -= fees[i - 1];" style="rounded=0;whiteSpace=wrap;html=1;align=left;fontFamily=Verdana;spacingLeft=9;" vertex="1" parent="1">
          <mxGeometry x="218.75" y="1190" width="121.25" height="60" as="geometry" />
        </mxCell>
        <mxCell id="zl6qF2EFwhdNq1f8Qjjg-33" value="" style="endArrow=classic;html=1;rounded=0;" edge="1" parent="1" target="zl6qF2EFwhdNq1f8Qjjg-30">
          <mxGeometry width="50" height="50" relative="1" as="geometry">
            <mxPoint x="280" y="890" as="sourcePoint" />
            <mxPoint x="530" y="980" as="targetPoint" />
          </mxGeometry>
        </mxCell>
        <mxCell id="zl6qF2EFwhdNq1f8Qjjg-34" value="" style="endArrow=classic;html=1;rounded=0;exitX=0.5;exitY=1;exitDx=0;exitDy=0;entryX=0.5;entryY=0;entryDx=0;entryDy=0;" edge="1" parent="1" source="zl6qF2EFwhdNq1f8Qjjg-30" target="zl6qF2EFwhdNq1f8Qjjg-31">
          <mxGeometry width="50" height="50" relative="1" as="geometry">
            <mxPoint x="500" y="1050" as="sourcePoint" />
            <mxPoint x="550" y="1000" as="targetPoint" />
          </mxGeometry>
        </mxCell>
        <mxCell id="zl6qF2EFwhdNq1f8Qjjg-35" value="" style="endArrow=classic;html=1;rounded=0;exitX=0.5;exitY=1;exitDx=0;exitDy=0;entryX=0.5;entryY=0;entryDx=0;entryDy=0;" edge="1" parent="1" source="zl6qF2EFwhdNq1f8Qjjg-31" target="zl6qF2EFwhdNq1f8Qjjg-32">
          <mxGeometry width="50" height="50" relative="1" as="geometry">
            <mxPoint x="390" y="1200" as="sourcePoint" />
            <mxPoint x="440" y="1150" as="targetPoint" />
          </mxGeometry>
        </mxCell>
        <mxCell id="zl6qF2EFwhdNq1f8Qjjg-60" style="edgeStyle=orthogonalEdgeStyle;rounded=0;orthogonalLoop=1;jettySize=auto;html=1;entryX=0.5;entryY=0;entryDx=0;entryDy=0;" edge="1" parent="1" source="zl6qF2EFwhdNq1f8Qjjg-36" target="zl6qF2EFwhdNq1f8Qjjg-59">
          <mxGeometry relative="1" as="geometry" />
        </mxCell>
        <mxCell id="zl6qF2EFwhdNq1f8Qjjg-36" value="&lt;div&gt;println(&quot;The maximum value is &quot; + A[n][B] + &quot; (= &quot; + a1 + &quot;) when distributing advertisings to sites &quot; + a2 + &quot;.&quot;);&lt;/div&gt;&lt;div&gt;&amp;nbsp; &amp;nbsp;&amp;nbsp;&lt;/div&gt;&lt;div&gt;return A[n][B];&lt;/div&gt;" style="rounded=0;whiteSpace=wrap;html=1;align=left;fontFamily=Verdana;spacingLeft=8;" vertex="1" parent="1">
          <mxGeometry x="83.75" y="1470" width="390" height="70" as="geometry" />
        </mxCell>
        <mxCell id="zl6qF2EFwhdNq1f8Qjjg-38" value="String a1 = getValue(v, Sites);&lt;br&gt;//呼叫方法，並把回傳句子存在string" style="rounded=0;whiteSpace=wrap;html=1;align=left;spacingLeft=8;" vertex="1" parent="1">
          <mxGeometry x="175" y="1280" width="207.5" height="60" as="geometry" />
        </mxCell>
        <mxCell id="zl6qF2EFwhdNq1f8Qjjg-43" style="edgeStyle=orthogonalEdgeStyle;rounded=0;orthogonalLoop=1;jettySize=auto;html=1;entryX=0.5;entryY=0;entryDx=0;entryDy=0;" edge="1" parent="1" source="zl6qF2EFwhdNq1f8Qjjg-39" target="zl6qF2EFwhdNq1f8Qjjg-36">
          <mxGeometry relative="1" as="geometry" />
        </mxCell>
        <mxCell id="zl6qF2EFwhdNq1f8Qjjg-39" value="String a2 =&amp;nbsp;formatSites(Sites);&lt;br&gt;//呼叫方法，並把回傳句子存在string" style="rounded=0;whiteSpace=wrap;html=1;align=left;spacingLeft=8;" vertex="1" parent="1">
          <mxGeometry x="175" y="1380" width="210" height="60" as="geometry" />
        </mxCell>
        <mxCell id="zl6qF2EFwhdNq1f8Qjjg-41" value="" style="endArrow=classic;html=1;rounded=0;exitX=0.5;exitY=1;exitDx=0;exitDy=0;entryX=0.5;entryY=0;entryDx=0;entryDy=0;" edge="1" parent="1" source="zl6qF2EFwhdNq1f8Qjjg-38" target="zl6qF2EFwhdNq1f8Qjjg-39">
          <mxGeometry width="50" height="50" relative="1" as="geometry">
            <mxPoint x="490" y="1340" as="sourcePoint" />
            <mxPoint x="540" y="1290" as="targetPoint" />
          </mxGeometry>
        </mxCell>
        <mxCell id="zl6qF2EFwhdNq1f8Qjjg-45" value="i &amp;gt; 0" style="text;html=1;align=center;verticalAlign=middle;resizable=0;points=[];autosize=1;strokeColor=none;fillColor=none;fontStyle=1;fontFamily=Comic Sans MS;" vertex="1" parent="1">
          <mxGeometry x="288.75" y="1020" width="50" height="30" as="geometry" />
        </mxCell>
        <mxCell id="zl6qF2EFwhdNq1f8Qjjg-46" value="true" style="text;html=1;align=center;verticalAlign=middle;resizable=0;points=[];autosize=1;strokeColor=none;fillColor=none;fontStyle=1;fontFamily=Comic Sans MS;" vertex="1" parent="1">
          <mxGeometry x="285" y="1150" width="50" height="30" as="geometry" />
        </mxCell>
        <mxCell id="zl6qF2EFwhdNq1f8Qjjg-50" value="false" style="text;html=1;align=center;verticalAlign=middle;resizable=0;points=[];autosize=1;strokeColor=none;fillColor=none;fontStyle=1;fontFamily=Comic Sans MS;" vertex="1" parent="1">
          <mxGeometry x="372.5" y="1100" width="50" height="30" as="geometry" />
        </mxCell>
        <mxCell id="zl6qF2EFwhdNq1f8Qjjg-53" value="i &amp;lt;= 0" style="text;html=1;align=center;verticalAlign=middle;resizable=0;points=[];autosize=1;strokeColor=none;fillColor=none;fontStyle=1;fontFamily=Comic Sans MS;" vertex="1" parent="1">
          <mxGeometry x="120" y="940" width="60" height="30" as="geometry" />
        </mxCell>
        <mxCell id="zl6qF2EFwhdNq1f8Qjjg-56" value="getValue 方法" style="text;strokeColor=none;fillColor=none;html=1;fontSize=18;fontStyle=1;verticalAlign=middle;align=center;fontFamily=Helvetica;labelBorderColor=none;labelBackgroundColor=none;" vertex="1" parent="1">
          <mxGeometry x="707" y="10" width="200" height="40" as="geometry" />
        </mxCell>
        <mxCell id="zl6qF2EFwhdNq1f8Qjjg-57" value="formatSites 方法" style="text;strokeColor=none;fillColor=none;html=1;fontSize=18;fontStyle=1;verticalAlign=middle;align=center;fontFamily=Helvetica;labelBorderColor=none;labelBackgroundColor=none;" vertex="1" parent="1">
          <mxGeometry x="1193" y="10" width="200" height="40" as="geometry" />
        </mxCell>
        <mxCell id="zl6qF2EFwhdNq1f8Qjjg-59" value="END" style="ellipse;whiteSpace=wrap;html=1;" vertex="1" parent="1">
          <mxGeometry x="228.75" y="1570" width="100" height="50" as="geometry" />
        </mxCell>
        <mxCell id="zl6qF2EFwhdNq1f8Qjjg-72" style="edgeStyle=orthogonalEdgeStyle;rounded=0;orthogonalLoop=1;jettySize=auto;html=1;" edge="1" parent="1" source="zl6qF2EFwhdNq1f8Qjjg-62" target="zl6qF2EFwhdNq1f8Qjjg-65">
          <mxGeometry relative="1" as="geometry" />
        </mxCell>
        <mxCell id="zl6qF2EFwhdNq1f8Qjjg-62" value="Sart" style="ellipse;whiteSpace=wrap;html=1;" vertex="1" parent="1">
          <mxGeometry x="757" y="70" width="100" height="60" as="geometry" />
        </mxCell>
        <mxCell id="zl6qF2EFwhdNq1f8Qjjg-95" style="edgeStyle=orthogonalEdgeStyle;rounded=0;orthogonalLoop=1;jettySize=auto;html=1;entryX=0.5;entryY=0;entryDx=0;entryDy=0;" edge="1" parent="1" source="zl6qF2EFwhdNq1f8Qjjg-63" target="zl6qF2EFwhdNq1f8Qjjg-86">
          <mxGeometry relative="1" as="geometry" />
        </mxCell>
        <mxCell id="zl6qF2EFwhdNq1f8Qjjg-63" value="Sart" style="ellipse;whiteSpace=wrap;html=1;" vertex="1" parent="1">
          <mxGeometry x="1243" y="70" width="100" height="50" as="geometry" />
        </mxCell>
        <mxCell id="zl6qF2EFwhdNq1f8Qjjg-73" style="edgeStyle=orthogonalEdgeStyle;rounded=0;orthogonalLoop=1;jettySize=auto;html=1;entryX=0.5;entryY=0;entryDx=0;entryDy=0;" edge="1" parent="1" source="zl6qF2EFwhdNq1f8Qjjg-65" target="zl6qF2EFwhdNq1f8Qjjg-67">
          <mxGeometry relative="1" as="geometry" />
        </mxCell>
        <mxCell id="zl6qF2EFwhdNq1f8Qjjg-65" value="StringBuilder s = new StringBuilder();&lt;br&gt;&lt;div style=&quot;&quot;&gt;&lt;span style=&quot;background-color: initial;&quot;&gt;int sum = 0;&lt;/span&gt;&lt;/div&gt;" style="rounded=0;whiteSpace=wrap;html=1;fontFamily=Verdana;align=left;spacingLeft=8;" vertex="1" parent="1">
          <mxGeometry x="680" y="160" width="254" height="60" as="geometry" />
        </mxCell>
        <mxCell id="zl6qF2EFwhdNq1f8Qjjg-74" style="edgeStyle=orthogonalEdgeStyle;rounded=0;orthogonalLoop=1;jettySize=auto;html=1;entryX=0.5;entryY=0;entryDx=0;entryDy=0;" edge="1" parent="1" source="zl6qF2EFwhdNq1f8Qjjg-67" target="zl6qF2EFwhdNq1f8Qjjg-68">
          <mxGeometry relative="1" as="geometry" />
        </mxCell>
        <mxCell id="zl6qF2EFwhdNq1f8Qjjg-67" value="for (int i = 0; i &amp;lt; Sites.size(); i++)&amp;nbsp;" style="rhombus;whiteSpace=wrap;html=1;fontFamily=Verdana;" vertex="1" parent="1">
          <mxGeometry x="680" y="250" width="255" height="100" as="geometry" />
        </mxCell>
        <mxCell id="zl6qF2EFwhdNq1f8Qjjg-79" style="edgeStyle=orthogonalEdgeStyle;rounded=0;orthogonalLoop=1;jettySize=auto;html=1;entryX=0.5;entryY=0;entryDx=0;entryDy=0;" edge="1" parent="1" source="zl6qF2EFwhdNq1f8Qjjg-68" target="zl6qF2EFwhdNq1f8Qjjg-70">
          <mxGeometry relative="1" as="geometry" />
        </mxCell>
        <mxCell id="zl6qF2EFwhdNq1f8Qjjg-68" value="int site = Sites.get(i);&lt;br&gt;sum += v [site - 1];&lt;br&gt;s.append(v[site - 1]);" style="rounded=0;whiteSpace=wrap;html=1;fontFamily=Verdana;align=left;spacingLeft=8;" vertex="1" parent="1">
          <mxGeometry x="728" y="390" width="158" height="60" as="geometry" />
        </mxCell>
        <mxCell id="zl6qF2EFwhdNq1f8Qjjg-80" style="edgeStyle=orthogonalEdgeStyle;rounded=0;orthogonalLoop=1;jettySize=auto;html=1;exitX=0.5;exitY=1;exitDx=0;exitDy=0;entryX=0.5;entryY=0;entryDx=0;entryDy=0;" edge="1" parent="1" source="zl6qF2EFwhdNq1f8Qjjg-70" target="zl6qF2EFwhdNq1f8Qjjg-71">
          <mxGeometry relative="1" as="geometry" />
        </mxCell>
        <mxCell id="zl6qF2EFwhdNq1f8Qjjg-84" style="edgeStyle=orthogonalEdgeStyle;rounded=0;orthogonalLoop=1;jettySize=auto;html=1;entryX=1;entryY=0.5;entryDx=0;entryDy=0;" edge="1" parent="1" source="zl6qF2EFwhdNq1f8Qjjg-70" target="zl6qF2EFwhdNq1f8Qjjg-67">
          <mxGeometry relative="1" as="geometry">
            <mxPoint x="990" y="300" as="targetPoint" />
            <Array as="points">
              <mxPoint x="991" y="520" />
              <mxPoint x="991" y="300" />
            </Array>
          </mxGeometry>
        </mxCell>
        <mxCell id="zl6qF2EFwhdNq1f8Qjjg-70" value="if (i &amp;lt; Sites.size() - 1)" style="rhombus;whiteSpace=wrap;html=1;fontFamily=Verdana;" vertex="1" parent="1">
          <mxGeometry x="712" y="480" width="190" height="80" as="geometry" />
        </mxCell>
        <mxCell id="zl6qF2EFwhdNq1f8Qjjg-71" value="s.append(&quot;+&quot;);" style="rounded=0;whiteSpace=wrap;html=1;fontFamily=Verdana;" vertex="1" parent="1">
          <mxGeometry x="747" y="600" width="120" height="45" as="geometry" />
        </mxCell>
        <mxCell id="zl6qF2EFwhdNq1f8Qjjg-75" value="i &amp;lt; Sites.size()" style="text;html=1;align=center;verticalAlign=middle;resizable=0;points=[];autosize=1;strokeColor=none;fillColor=none;fontStyle=1;fontFamily=Comic Sans MS;" vertex="1" parent="1">
          <mxGeometry x="825" y="350" width="110" height="30" as="geometry" />
        </mxCell>
        <mxCell id="zl6qF2EFwhdNq1f8Qjjg-76" value="i &amp;gt;= Sites.size()" style="text;html=1;align=center;verticalAlign=middle;resizable=0;points=[];autosize=1;strokeColor=none;fillColor=none;fontStyle=1;fontFamily=Comic Sans MS;" vertex="1" parent="1">
          <mxGeometry x="570" y="270" width="120" height="30" as="geometry" />
        </mxCell>
        <mxCell id="zl6qF2EFwhdNq1f8Qjjg-77" value="return s.toString() ;" style="rounded=0;whiteSpace=wrap;html=1;fontFamily=Verdana;" vertex="1" parent="1">
          <mxGeometry x="723.5" y="670" width="162.5" height="45" as="geometry" />
        </mxCell>
        <mxCell id="zl6qF2EFwhdNq1f8Qjjg-81" value="true" style="text;html=1;align=center;verticalAlign=middle;resizable=0;points=[];autosize=1;strokeColor=none;fillColor=none;fontStyle=1;fontFamily=Comic Sans MS;" vertex="1" parent="1">
          <mxGeometry x="807" y="560" width="50" height="30" as="geometry" />
        </mxCell>
        <mxCell id="zl6qF2EFwhdNq1f8Qjjg-82" value="false" style="text;html=1;align=center;verticalAlign=middle;resizable=0;points=[];autosize=1;strokeColor=none;fillColor=none;fontStyle=1;fontFamily=Comic Sans MS;" vertex="1" parent="1">
          <mxGeometry x="920" y="520" width="50" height="30" as="geometry" />
        </mxCell>
        <mxCell id="zl6qF2EFwhdNq1f8Qjjg-85" value="" style="endArrow=classic;html=1;rounded=0;exitX=0;exitY=0.5;exitDx=0;exitDy=0;entryX=0;entryY=0.5;entryDx=0;entryDy=0;" edge="1" parent="1" source="zl6qF2EFwhdNq1f8Qjjg-67" target="zl6qF2EFwhdNq1f8Qjjg-77">
          <mxGeometry width="50" height="50" relative="1" as="geometry">
            <mxPoint x="610" y="490" as="sourcePoint" />
            <mxPoint x="660" y="440" as="targetPoint" />
            <Array as="points">
              <mxPoint x="580" y="300" />
              <mxPoint x="580" y="690" />
            </Array>
          </mxGeometry>
        </mxCell>
        <mxCell id="zl6qF2EFwhdNq1f8Qjjg-98" style="edgeStyle=orthogonalEdgeStyle;rounded=0;orthogonalLoop=1;jettySize=auto;html=1;entryX=0.5;entryY=0;entryDx=0;entryDy=0;" edge="1" parent="1" source="zl6qF2EFwhdNq1f8Qjjg-86" target="zl6qF2EFwhdNq1f8Qjjg-87">
          <mxGeometry relative="1" as="geometry" />
        </mxCell>
        <mxCell id="zl6qF2EFwhdNq1f8Qjjg-86" value="StringBuilder s = new StringBuilder();" style="rounded=0;whiteSpace=wrap;html=1;fontFamily=Verdana;align=left;spacingLeft=8;" vertex="1" parent="1">
          <mxGeometry x="1166" y="160" width="254" height="60" as="geometry" />
        </mxCell>
        <mxCell id="zl6qF2EFwhdNq1f8Qjjg-100" style="edgeStyle=orthogonalEdgeStyle;rounded=0;orthogonalLoop=1;jettySize=auto;html=1;entryX=0.5;entryY=0;entryDx=0;entryDy=0;" edge="1" parent="1" source="zl6qF2EFwhdNq1f8Qjjg-87" target="zl6qF2EFwhdNq1f8Qjjg-88">
          <mxGeometry relative="1" as="geometry" />
        </mxCell>
        <mxCell id="zl6qF2EFwhdNq1f8Qjjg-107" style="edgeStyle=orthogonalEdgeStyle;rounded=0;orthogonalLoop=1;jettySize=auto;html=1;" edge="1" parent="1" source="zl6qF2EFwhdNq1f8Qjjg-87">
          <mxGeometry relative="1" as="geometry">
            <mxPoint x="1210" y="720" as="targetPoint" />
            <Array as="points">
              <mxPoint x="1060" y="308" />
              <mxPoint x="1060" y="720" />
            </Array>
          </mxGeometry>
        </mxCell>
        <mxCell id="zl6qF2EFwhdNq1f8Qjjg-87" value="for (int i = 0; i &amp;lt; Sites.size(); i++)&amp;nbsp;" style="rhombus;whiteSpace=wrap;html=1;fontFamily=Verdana;" vertex="1" parent="1">
          <mxGeometry x="1166" y="255" width="255" height="105" as="geometry" />
        </mxCell>
        <mxCell id="zl6qF2EFwhdNq1f8Qjjg-101" style="edgeStyle=orthogonalEdgeStyle;rounded=0;orthogonalLoop=1;jettySize=auto;html=1;entryX=0.5;entryY=0;entryDx=0;entryDy=0;" edge="1" parent="1" source="zl6qF2EFwhdNq1f8Qjjg-88" target="zl6qF2EFwhdNq1f8Qjjg-89">
          <mxGeometry relative="1" as="geometry" />
        </mxCell>
        <mxCell id="zl6qF2EFwhdNq1f8Qjjg-88" value="s.append(Sites.get(i));" style="rounded=0;whiteSpace=wrap;html=1;fontFamily=Verdana;align=left;spacingLeft=8;" vertex="1" parent="1">
          <mxGeometry x="1214.5" y="410" width="158" height="60" as="geometry" />
        </mxCell>
        <mxCell id="zl6qF2EFwhdNq1f8Qjjg-103" style="edgeStyle=orthogonalEdgeStyle;rounded=0;orthogonalLoop=1;jettySize=auto;html=1;" edge="1" parent="1" source="zl6qF2EFwhdNq1f8Qjjg-89">
          <mxGeometry relative="1" as="geometry">
            <mxPoint x="1293" y="620" as="targetPoint" />
          </mxGeometry>
        </mxCell>
        <mxCell id="zl6qF2EFwhdNq1f8Qjjg-105" style="edgeStyle=orthogonalEdgeStyle;rounded=0;orthogonalLoop=1;jettySize=auto;html=1;entryX=1;entryY=0.5;entryDx=0;entryDy=0;" edge="1" parent="1" source="zl6qF2EFwhdNq1f8Qjjg-89" target="zl6qF2EFwhdNq1f8Qjjg-87">
          <mxGeometry relative="1" as="geometry">
            <mxPoint x="1470" y="310" as="targetPoint" />
            <Array as="points">
              <mxPoint x="1471" y="535" />
              <mxPoint x="1471" y="308" />
            </Array>
          </mxGeometry>
        </mxCell>
        <mxCell id="zl6qF2EFwhdNq1f8Qjjg-89" value="if (i &amp;lt; Sites.size() - 1)" style="rhombus;whiteSpace=wrap;html=1;fontFamily=Verdana;" vertex="1" parent="1">
          <mxGeometry x="1198" y="495" width="190" height="80" as="geometry" />
        </mxCell>
        <mxCell id="zl6qF2EFwhdNq1f8Qjjg-90" value="s.append(&quot;, &quot;);" style="rounded=0;whiteSpace=wrap;html=1;fontFamily=Verdana;" vertex="1" parent="1">
          <mxGeometry x="1233" y="622" width="120" height="45" as="geometry" />
        </mxCell>
        <mxCell id="zl6qF2EFwhdNq1f8Qjjg-91" value="return s.toString() ;" style="rounded=0;whiteSpace=wrap;html=1;fontFamily=Verdana;" vertex="1" parent="1">
          <mxGeometry x="1212.25" y="700" width="162.5" height="45" as="geometry" />
        </mxCell>
        <mxCell id="zl6qF2EFwhdNq1f8Qjjg-99" value="i &amp;lt; Sites.size()" style="text;html=1;align=center;verticalAlign=middle;resizable=0;points=[];autosize=1;strokeColor=none;fillColor=none;fontStyle=1;fontFamily=Comic Sans MS;" vertex="1" parent="1">
          <mxGeometry x="1300" y="370" width="110" height="30" as="geometry" />
        </mxCell>
        <mxCell id="zl6qF2EFwhdNq1f8Qjjg-102" value="true" style="text;html=1;align=center;verticalAlign=middle;resizable=0;points=[];autosize=1;strokeColor=none;fillColor=none;fontStyle=1;fontFamily=Comic Sans MS;" vertex="1" parent="1">
          <mxGeometry x="1293" y="575" width="50" height="30" as="geometry" />
        </mxCell>
        <mxCell id="zl6qF2EFwhdNq1f8Qjjg-104" value="false" style="text;html=1;align=center;verticalAlign=middle;resizable=0;points=[];autosize=1;strokeColor=none;fillColor=none;fontStyle=1;fontFamily=Comic Sans MS;" vertex="1" parent="1">
          <mxGeometry x="1400" y="535" width="50" height="30" as="geometry" />
        </mxCell>
        <mxCell id="zl6qF2EFwhdNq1f8Qjjg-106" value="i &amp;gt;= Sites.size()" style="text;html=1;align=center;verticalAlign=middle;resizable=0;points=[];autosize=1;strokeColor=none;fillColor=none;fontStyle=1;fontFamily=Comic Sans MS;" vertex="1" parent="1">
          <mxGeometry x="1050" y="270" width="120" height="30" as="geometry" />
        </mxCell>
      </root>
    </mxGraphModel>
  </diagram>
</mxfile>
